<svg width="158" height="190" viewBox="0 0 158 190" fill="none" xmlns="http://www.w3.org/2000/svg">
<path d="M99.7284 44.9731C99.7284 44.9731 101.149 48.685 100.464 50.2149C99.7784 51.7448 98.7911 53.0387 98.1336 54.9832C97.4761 56.9277 99.1199 63.9787 102.659 64.9698C106.199 65.9609 108.843 62.5639 109.631 60.6476C110.418 58.7313 109.584 53.8954 108.004 50.5912C106.423 47.2869 103.678 44.4406 99.7284 44.9731Z" fill="#C7DCF9"/>
<g style="mix-blend-mode:multiply">
<path d="M115.078 139.517C112.783 141.695 110.16 143.5 107.306 144.865C104.627 146.11 103.843 148.342 104.943 152.265C106.043 156.188 106.928 162.361 108.755 163.879C110.583 165.397 116.432 164.131 119.238 160.126C117.774 152.708 115.078 139.517 115.078 139.517Z" fill="#C7DCF9"/>
</g>
<g style="mix-blend-mode:multiply">
<path d="M128.35 97.8663C128.35 97.8663 125.016 99.5945 125.504 101.96C125.991 104.325 130.277 115.626 131.731 116.573C133.185 117.52 137.155 115.399 137.155 115.399C132.147 103.769 128.35 97.8663 128.35 97.8663Z" fill="#C7DCF9"/>
</g>
<path d="M14.2671 58.1871C14.2671 58.1871 6.14822 62.0495 5.4621 70.1474C4.77599 78.2453 25.3142 100.446 25.3142 100.446L81.6439 65.0045L60.9752 33.8174L14.2671 58.1871Z" fill="#C7DCF9"/>
<path d="M27.7027 64.8915C27.7027 64.8915 21.978 71.6213 20.5626 78.7358C19.1472 85.8502 19.7459 98.3444 20.3751 102.997C30.1234 110.869 65.9117 101.308 65.9117 101.308L98.0896 57.8376C98.0896 57.8376 91.4061 46.9885 88.1903 44.1075C84.9745 41.2264 74.9661 38.0494 64.0227 43.3345C58.0526 53.1492 27.7027 64.8915 27.7027 64.8915Z" fill="#C7DCF9"/>
<g style="mix-blend-mode:multiply">
<path d="M25.1775 68.342C25.1775 68.342 39.0408 71.7815 53.9175 64.851C68.7943 57.9205 70.4408 41.1147 70.4408 41.1147L64.0153 43.3373L27.7026 64.8914L25.1775 68.342Z" fill="#C7DCF9"/>
</g>
<path d="M83.8559 115.595C83.8559 115.595 101.02 114.549 105.924 115.455C110.828 116.361 125.535 144.38 131.001 146.788C136.468 149.197 140.643 144.302 146.23 140.5C151.817 136.697 156.869 132.211 156.92 130.477C156.971 128.744 154.036 122.029 151.806 120.784C149.575 119.54 143.364 119.86 140.197 122.203C134.441 109.283 126.224 90.4289 119.706 88.197C113.187 85.9651 93.889 85.9949 93.889 85.9949L83.8559 115.595Z" fill="#C7DCF9"/>
<g style="mix-blend-mode:multiply" opacity="0.51">
<path d="M101.05 101.733C101.05 101.733 115.122 102.32 119.332 107.258C123.542 112.197 133.335 143.491 141.945 143.667C142.777 153.962 125.3 158.879 125.3 158.879L79.6211 114.528L101.05 101.733Z" fill="#C7DCF9"/>
</g>
<path d="M37.5863 116.099C37.5863 116.099 49.6281 137.514 59.6033 142.904C69.5785 148.294 86.8811 146.637 91.9293 150.266C96.9774 153.896 97.2472 172.951 102.366 177.658C107.484 182.365 114.416 184.993 120.664 184.003C126.911 183.012 131.737 179.658 131.61 176.825C131.483 173.992 131.065 171.555 128.009 170.246C124.954 168.936 120.708 167.96 120.41 166.213C120.113 164.467 114.965 137.911 113.088 130.725C111.211 123.54 99.7625 114.141 85.5447 109.976C71.665 99.8608 51.8039 105.935 51.8039 105.935L37.5863 116.099Z" fill="#C7DCF9"/>
<g style="mix-blend-mode:multiply">
<path d="M41.0545 121.812C41.0545 121.812 53.2036 121.613 63.7548 116.103C60.9306 105.179 54.2995 102.343 54.2995 102.343L37.5861 116.099L41.0545 121.812Z" fill="#C7DCF9"/>
</g>
<path d="M50.0155 5.13013C40.1908 0.693621 20.203 0.321418 8.96223 16.3621C-2.2786 32.4028 4.89929 47.7681 10.5492 54.7658C16.4665 62.1103 35.8135 72.6401 54.8684 60.24C73.9233 47.8398 73.8541 15.8993 50.0155 5.13013Z" fill="#C7DCF9"/>
<path d="M49.0114 14.5434C57.5695 15.9871 63.8376 27.436 61.7719 38.9418C59.7063 50.4475 50.4746 58.7126 39.5416 59.5116C28.6086 60.3105 17.2292 53.576 16.3462 39.6074C15.5 26.1835 30.427 11.4099 49.0114 14.5434Z" fill="#8B04BA"/>
<g style="mix-blend-mode:multiply">
<path d="M30.7058 104.565C41.3362 98.7317 32.343 87.6564 43.1042 84.2738C57.6659 85.3521 61.6054 84.3471 61.6054 84.3471C61.6054 84.3471 35.6468 110.442 30.7058 104.565Z" fill="#C7DCF9"/>
</g>
<path d="M37.7518 72.8446L59.1841 118.607L84.9791 116.249L107.606 99.6942L113.206 77.8456L92.6485 27.7036L85.9683 52.277L65.6225 70.8245L37.7518 72.8446Z" fill="#FF97C9"/>
<path d="M30.706 104.565C36.7278 103.666 39.5458 99.5155 41.2629 97.6424C42.1375 96.6864 41.8982 95.9163 41.2534 93.372C40.6086 90.8278 42.0644 88.0753 44.2207 86.7937C45.6699 90.0108 47.2185 90.5348 48.3709 90.3018C49.5234 90.0688 50.2496 83.0403 54.0565 82.8451C57.8633 82.65 61.2522 87.4762 61.9295 89.9542C62.6068 92.4322 60.6343 99.7641 57.8921 105.001C55.1498 110.239 51.2224 116.758 41.5673 119.366C31.9122 121.974 26.0109 117.352 22.3782 111.251C21.1525 109.192 20.5637 106.272 20.3767 102.987C20.3767 102.987 22.7626 105.732 30.706 104.565Z" fill="#C7DCF9"/>
<g style="mix-blend-mode:soft-light" opacity="0.48">
<path d="M42.6108 29.1457C48.5588 27.4076 52.8823 24.2932 52.2675 22.1893C51.6527 20.0854 46.3326 19.7888 40.3846 21.5268C34.4366 23.2648 30.1131 26.3793 30.7279 28.4831C31.3426 30.587 36.6628 30.8837 42.6108 29.1457Z" fill="white"/>
</g>
<g style="mix-blend-mode:multiply">
<path d="M61.0061 97.0946C61.0061 97.0946 53.642 91.356 52.3834 91.4409C51.1248 91.5258 48.1044 96.6586 48.9477 97.9079C49.7911 99.1572 53.9596 103.155 58.3094 104.177C59.513 101.449 61.0061 97.0946 61.0061 97.0946Z" fill="#C7DCF9"/>
</g>
<g style="mix-blend-mode:multiply" opacity="0.5">
<path d="M65.6226 70.8244L84.9792 116.249L107.606 99.6941L85.9684 52.2769L65.6226 70.8244Z" fill="#FF97C9"/>
</g>
</svg>
