<svg width="283" height="222" viewBox="0 0 283 222" fill="none" xmlns="http://www.w3.org/2000/svg">
<path fill-rule="evenodd" clip-rule="evenodd" d="M138.95 28.047C165.257 17.0785 190.371 -4.96088 218.241 1.00732C247.009 7.1677 278.306 29.6904 282.565 58.8007C287.06 89.532 255.665 112.879 238.381 138.684C228.096 154.038 214.138 165.085 202.026 179.044C189.925 192.991 185.341 217.107 167.227 220.693C148.803 224.34 135.952 201.252 118.018 195.673C100.533 190.234 80.0468 198.673 64.6395 188.778C47.6765 177.882 39.8501 158.077 31.1597 139.885C19.2302 114.913 -11.5363 85.5266 4.55972 63.0138C22.2019 38.3384 63.8142 60.7918 93.1703 53.1537C110.362 48.6807 122.554 34.8829 138.95 28.047Z" fill="black"/>
<path d="M168.526 15.6102L169.408 17.128C169.46 17.2201 169.535 17.2978 169.625 17.3544C169.714 17.4111 169.817 17.445 169.922 17.4531L171.674 17.5815C171.796 17.5907 171.913 17.634 172.012 17.7066C172.111 17.7791 172.188 17.878 172.234 17.9919C172.28 18.1059 172.292 18.2304 172.271 18.3513C172.249 18.4721 172.194 18.5845 172.112 18.6757L170.941 19.987C170.87 20.066 170.819 20.1612 170.793 20.2643C170.767 20.3674 170.766 20.4753 170.791 20.5787L171.202 22.2762C171.23 22.3953 171.226 22.52 171.187 22.6364C171.149 22.7528 171.079 22.8561 170.985 22.9347C170.891 23.0134 170.777 23.0642 170.656 23.0814C170.535 23.0986 170.411 23.0815 170.299 23.0321L168.691 22.3223C168.594 22.279 168.488 22.2601 168.381 22.2673C168.275 22.2744 168.173 22.3074 168.082 22.3634L166.584 23.2826C166.48 23.3473 166.359 23.3814 166.236 23.381C166.114 23.3806 165.993 23.3457 165.889 23.2803C165.785 23.2149 165.702 23.1217 165.648 23.0111C165.594 22.9005 165.573 22.7772 165.586 22.655L165.767 20.9176C165.778 20.8118 165.763 20.7049 165.723 20.6062C165.683 20.5076 165.62 20.4201 165.539 20.3513L164.202 19.2092C164.109 19.1299 164.039 19.0258 164.002 18.909C163.964 18.7921 163.96 18.667 163.99 18.5479C164.02 18.4289 164.083 18.3206 164.171 18.2354C164.259 18.1502 164.37 18.0915 164.49 18.066L166.208 17.7037C166.312 17.6813 166.409 17.634 166.49 17.5658C166.571 17.4977 166.635 17.4106 166.675 17.3124L167.344 15.6899C167.39 15.5754 167.468 15.4762 167.568 15.4038C167.668 15.3313 167.787 15.2885 167.91 15.2802C168.034 15.2718 168.157 15.2984 168.266 15.3567C168.375 15.4151 168.465 15.5029 168.526 15.6102V15.6102Z" fill="white"/>
<path d="M200.088 55.2309C197.749 53.4466 199.408 44.2061 204.481 41.7272C209.553 39.2484 216.187 41.1373 217.817 44.6897C219.446 48.2421 204.881 58.8854 200.088 55.2309Z" fill="#8B04BA"/>
<path d="M225.975 58.3695C224.952 60.0576 224.509 64.6987 226.951 65.3546C229.393 66.0106 230.88 61.1661 229.876 58.7644C228.871 56.3627 226.658 57.2415 225.975 58.3695Z" fill="#8B04BA"/>
<path opacity="0.44" d="M225.18 21.0041C223.456 21.9633 220.762 25.7678 222.558 27.5517C224.355 29.3357 228.047 25.868 228.368 23.2857C228.689 20.7034 226.332 20.3645 225.18 21.0041Z" fill="#8B04BA"/>
<g style="mix-blend-mode:multiply" opacity="0.64">
<path d="M211.565 43.216C210.512 43.6321 209.498 44.8711 209.679 46.1232C209.86 47.3754 211.033 48.4004 212.215 48.1703C213.397 47.9402 214.283 45.9458 213.944 44.5787C213.606 43.2115 212.37 42.9005 211.565 43.216Z" fill="#8B04BA"/>
</g>
<g style="mix-blend-mode:multiply" opacity="0.64">
<path d="M200.325 46.4384C200.325 46.4384 201.897 47.8112 201.764 49.4985C201.631 51.1858 199.084 51.2023 199.084 51.2023C199.084 51.2023 199.27 48.3284 200.325 46.4384Z" fill="#8B04BA"/>
</g>
<path d="M96.7307 187.372L97.4697 188.646C97.5138 188.723 97.5764 188.789 97.6518 188.836C97.7272 188.883 97.8132 188.911 97.902 188.917L99.3711 189.03C99.4735 189.038 99.5716 189.075 99.6544 189.136C99.7372 189.196 99.8013 189.279 99.8395 189.375C99.8778 189.47 99.8885 189.574 99.8707 189.675C99.8528 189.776 99.8071 189.87 99.7385 189.947L98.7552 191.043C98.6948 191.11 98.6518 191.191 98.6302 191.279C98.6086 191.366 98.609 191.457 98.6313 191.545L98.9742 192.976C98.9979 193.076 98.9933 193.18 98.961 193.277C98.9286 193.375 98.8698 193.461 98.7912 193.527C98.7125 193.593 98.6171 193.636 98.5155 193.651C98.414 193.665 98.3103 193.652 98.2161 193.611L96.8696 193.014C96.7881 192.978 96.6991 192.963 96.6103 192.969C96.5214 192.975 96.4354 193.002 96.3593 193.049L95.1098 193.815C95.0221 193.869 94.921 193.898 94.818 193.897C94.715 193.897 94.6142 193.867 94.527 193.812C94.4399 193.757 94.37 193.679 94.3251 193.586C94.2802 193.494 94.2623 193.39 94.2732 193.288L94.421 191.824C94.4302 191.734 94.4174 191.644 94.3839 191.56C94.3504 191.476 94.297 191.402 94.2284 191.344L93.1092 190.389C93.031 190.323 92.973 190.235 92.9417 190.138C92.9104 190.04 92.9072 189.935 92.9322 189.835C92.9573 189.736 93.0097 189.645 93.0836 189.574C93.1574 189.502 93.2498 189.453 93.3502 189.431L94.7884 189.122C94.8758 189.104 94.9574 189.065 95.0262 189.008C95.0949 188.951 95.1487 188.878 95.1828 188.795L95.7441 187.434C95.7837 187.339 95.8491 187.257 95.9328 187.197C96.0166 187.137 96.1155 187.102 96.2182 187.096C96.3209 187.09 96.4234 187.112 96.5139 187.161C96.6045 187.21 96.6796 187.283 96.7307 187.372V187.372Z" fill="white"/>
<path d="M53.2669 153.252C50.1544 147.774 58.644 141.114 66.2446 141.04C73.8452 140.966 77.4986 147.741 80.356 150.168C86.324 155.232 86.5065 160.568 82.7821 163.118C79.0577 165.669 57.3858 160.499 53.2669 153.252Z" fill="#8B04BA"/>
<path opacity="0.44" d="M67.4005 176.232C65.777 175.109 61.1753 174.372 60.3661 176.77C59.5568 179.169 64.2998 180.941 66.752 180.101C69.2042 179.26 68.4812 176.982 67.4005 176.232Z" fill="#8B04BA"/>
<g style="mix-blend-mode:multiply" opacity="0.64">
<path d="M78.9092 148.706C76.2035 149.406 76.8104 151.827 77.8385 153.988C78.8665 156.149 82.0005 156.573 84.0447 154.397C82.4019 151.124 78.9092 148.706 78.9092 148.706Z" fill="#8B04BA"/>
</g>
<g style="mix-blend-mode:multiply" opacity="0.64">
<path d="M62.9071 146.071C60.9591 146.422 59.5511 149.37 61.0902 151.581C62.6293 153.791 65.3798 155.292 66.8463 154.562C68.3128 153.832 68.3365 150.419 67.1002 148.314C65.864 146.209 64.7795 145.733 62.9071 146.071Z" fill="#8B04BA"/>
</g>
</svg>
