<svg width="42" height="42" viewBox="0 0 42 42" fill="none" xmlns="http://www.w3.org/2000/svg">
<path d="M21.4882 2.73329C21.1749 2.60709 20.8251 2.60709 20.5118 2.73329L4.84575 9.02941L21 15.5207L37.1543 9.02941L21.4882 2.73329ZM39.375 10.9787L22.3125 17.8366V38.7322L39.375 31.8743V10.9813V10.9787ZM19.6875 38.7349V17.834L2.625 10.9787V31.8769L19.6875 38.7349ZM19.5379 0.282892C20.4765 -0.0942973 21.5235 -0.0942973 22.4621 0.282892L41.1758 7.80553C41.4191 7.90351 41.6276 8.07244 41.7745 8.29057C41.9214 8.5087 41.9999 8.76603 42 9.02941V31.8769C41.9997 32.404 41.8422 32.9189 41.5479 33.3552C41.2536 33.7915 40.836 34.1291 40.3489 34.3247L21.4882 41.9053C21.1749 42.0315 20.8251 42.0315 20.5118 41.9053L1.65375 34.3247C1.16616 34.1296 0.747974 33.792 0.453185 33.3557C0.158397 32.9194 0.000541614 32.4043 0 31.8769L0 9.02941C6.10049e-05 8.76603 0.0786023 8.5087 0.225506 8.29057C0.372409 8.07244 0.580946 7.90351 0.82425 7.80553L19.5379 0.282892Z" fill="#8B04BA"/>
</svg>
